<?xml version="1.0" encoding="utf-8"?>
<!-- Generator: Adobe Illustrator 16.0.3, SVG Export Plug-In . SVG Version: 6.00 Build 0)  -->
<!DOCTYPE svg PUBLIC "-//W3C//DTD SVG 1.1//EN" "http://www.w3.org/Graphics/SVG/1.1/DTD/svg11.dtd">
<svg version="1.1" id="Camada_1" xmlns="http://www.w3.org/2000/svg" xmlns:xlink="http://www.w3.org/1999/xlink" x="0px" y="0px"
	 width="600px" height="600px" viewBox="0 0 600 600" enable-background="new 0 0 600 600" xml:space="preserve">
<path fill="#010002" stroke="#000000" stroke-miterlimit="10" d="M277.517,227.448c-1.31,0-2.608,0.038-3.898,0.098
	c-11.565,23.768-18.892,48.253-19.695,75.212c-0.499,16.736,0.133,33.517,2.069,50.152c1.477,12.691,3.557,25.167,9.152,36.527
	c5.015,0.944,10.183,1.459,15.475,1.459c45.516,0,82.414-36.589,82.414-81.725C363.034,264.038,323.033,227.448,277.517,227.448z"/>
<linearGradient id="SVGID_1_" gradientUnits="userSpaceOnUse" x1="272.0557" y1="131.0205" x2="327.9443" y2="131.0205">
	<stop  offset="0" style="stop-color:#FEF050"/>
	<stop  offset="0" style="stop-color:#F9E43E"/>
	<stop  offset="0" style="stop-color:#F3D727"/>
	<stop  offset="0" style="stop-color:#F0CE09"/>
	<stop  offset="0" style="stop-color:#EFCB00"/>
	<stop  offset="1" style="stop-color:#C34435"/>
	<stop  offset="1" style="stop-color:#D99544"/>
	<stop  offset="1" style="stop-color:#CE743D"/>
	<stop  offset="1" style="stop-color:#CD6F3C"/>
	<stop  offset="1" style="stop-color:#CD703C"/>
</linearGradient>
<path fill="url(#SVGID_1_)" stroke="#E7C321" stroke-miterlimit="10" d="M326.593,133.664c4.729-47.566-3.345-87.311-18.032-88.771
	c-14.687-1.459-30.426,35.917-35.153,83.485c-4.728,47.566,3.345,87.31,18.032,88.77
	C306.127,218.608,321.865,181.231,326.593,133.664z"/>
<linearGradient id="SVGID_2_" gradientUnits="userSpaceOnUse" x1="271.4551" y1="484.5498" x2="328.5449" y2="484.5498">
	<stop  offset="0" style="stop-color:#FEF050"/>
	<stop  offset="0" style="stop-color:#F9E43E"/>
	<stop  offset="0" style="stop-color:#F3D727"/>
	<stop  offset="0" style="stop-color:#F0CE09"/>
	<stop  offset="0" style="stop-color:#EFCB00"/>
	<stop  offset="0.8522" style="stop-color:#CD6F3C"/>
	<stop  offset="1" style="stop-color:#CD703C"/>
	<stop  offset="1" style="stop-color:#C34435"/>
	<stop  offset="1" style="stop-color:#D99544"/>
	<stop  offset="1" style="stop-color:#CE743D"/>
</linearGradient>
<path fill="url(#SVGID_2_)" stroke="#E7C321" stroke-miterlimit="10" d="M326.525,481.3c-5.813-47.445-22.4-84.455-37.051-82.659
	c-14.65,1.795-21.813,41.714-16,89.159c5.813,47.446,22.402,84.454,37.052,82.659C325.178,568.664,332.339,528.745,326.525,481.3z"
	/>
<linearGradient id="SVGID_3_" gradientUnits="userSpaceOnUse" x1="340.793" y1="184.4082" x2="467.7656" y2="184.4082">
	<stop  offset="0" style="stop-color:#FEF050"/>
	<stop  offset="0" style="stop-color:#F9E43E"/>
	<stop  offset="0" style="stop-color:#F3D727"/>
	<stop  offset="0" style="stop-color:#F0CE09"/>
	<stop  offset="0" style="stop-color:#EFCB00"/>
	<stop  offset="0.4778" style="stop-color:#CF753C"/>
	<stop  offset="1" style="stop-color:#CD703C"/>
	<stop  offset="1" style="stop-color:#C34435"/>
	<stop  offset="1" style="stop-color:#D99544"/>
	<stop  offset="1" style="stop-color:#CE743D"/>
	<stop  offset="1" style="stop-color:#CD6F3C"/>
</linearGradient>
<path fill="url(#SVGID_3_)" stroke="#E7C321" stroke-miterlimit="10" d="M423.382,203.096
	c33.429-34.169,51.974-70.235,41.424-80.558c-10.551-10.321-46.202,9.011-79.63,43.181s-51.973,70.237-41.423,80.558
	C354.304,256.6,389.955,237.266,423.382,203.096z"/>
<linearGradient id="SVGID_4_" gradientUnits="userSpaceOnUse" x1="340.8613" y1="430.7598" x2="482.8662" y2="430.7598">
	<stop  offset="0" style="stop-color:#FEF050"/>
	<stop  offset="0" style="stop-color:#F9E43E"/>
	<stop  offset="0" style="stop-color:#F3D727"/>
	<stop  offset="0" style="stop-color:#F0CE09"/>
	<stop  offset="0" style="stop-color:#EFCB00"/>
	<stop  offset="0.8522" style="stop-color:#CD6F3C"/>
	<stop  offset="1" style="stop-color:#CD703C"/>
	<stop  offset="1" style="stop-color:#C34435"/>
	<stop  offset="1" style="stop-color:#D99544"/>
	<stop  offset="1" style="stop-color:#CE743D"/>
</linearGradient>
<path fill="url(#SVGID_4_)" stroke="#E7C321" stroke-miterlimit="10" d="M427.938,409.411
	c-38.186-28.753-76.339-42.505-85.217-30.714c-8.88,11.791,14.881,44.658,53.067,73.412c38.186,28.753,76.34,42.504,85.218,30.713
	S466.125,438.164,427.938,409.411z"/>
<linearGradient id="SVGID_5_" gradientUnits="userSpaceOnUse" x1="367.9541" y1="310.9648" x2="541.0586" y2="310.9648">
	<stop  offset="0" style="stop-color:#FEF050"/>
	<stop  offset="0" style="stop-color:#F9E43E"/>
	<stop  offset="0" style="stop-color:#F3D727"/>
	<stop  offset="0" style="stop-color:#F0CE09"/>
	<stop  offset="0" style="stop-color:#EFCB00"/>
	<stop  offset="1" style="stop-color:#CD703C"/>
	<stop  offset="1" style="stop-color:#C34435"/>
	<stop  offset="1" style="stop-color:#D99544"/>
	<stop  offset="1" style="stop-color:#CE743D"/>
	<stop  offset="1" style="stop-color:#CD6F3C"/>
</linearGradient>
<path fill="url(#SVGID_5_)" stroke="#E7C321" stroke-miterlimit="10" d="M454.473,337.689c47.801,0.061,86.566-11.854,86.586-26.613
	c0.019-14.76-38.717-26.774-86.518-26.835c-47.801-0.062-86.567,11.854-86.587,26.612
	C367.936,325.613,406.672,337.627,454.473,337.689z"/>
</svg>
