<svg width="58" height="104" viewBox="0 0 58 104" fill="none" xmlns="http://www.w3.org/2000/svg">
<path d="M5.60964 36.4307C5.35545 36.4307 5.10358 36.438 4.85327 36.4497C2.60922 41.0616 1.1875 45.8126 1.03169 51.0437C0.934863 54.2911 1.0575 57.5473 1.43315 60.7751C1.71975 63.2377 2.12335 65.6585 3.20899 67.8628C4.18209 68.0459 5.18489 68.1459 6.21174 68.1459C15.0436 68.1459 22.2032 61.0462 22.2032 52.2881C22.2032 43.5305 14.4415 36.4307 5.60964 36.4307Z" fill="#010002" stroke="black" stroke-miterlimit="10"/>
<path d="M15.131 18.233C16.0486 9.00337 14.482 1.29131 11.6321 1.00801C8.78227 0.724912 5.7283 7.97729 4.81108 17.2073C3.89366 26.4369 5.46014 34.1488 8.30998 34.4321C11.1598 34.7154 14.2136 27.4628 15.131 18.233Z" fill="url(#paint0_linear_666_142)" stroke="#E7C321" stroke-miterlimit="10"/>
<path d="M15.1194 85.6875C13.9915 76.4814 10.7729 69.3 7.93009 69.6485C5.08743 69.9968 3.69753 77.7426 4.82548 86.9488C5.95342 96.1551 9.17233 103.336 12.015 102.988C14.858 102.64 16.2475 94.8937 15.1194 85.6875Z" fill="url(#paint1_linear_666_142)" stroke="#E7C321" stroke-miterlimit="10"/>
<path d="M33.9141 31.7055C40.4006 25.0754 43.9991 18.0772 41.952 16.0742C39.9047 14.0715 32.987 17.8227 26.5007 24.4529C20.0144 31.0832 16.4159 38.0816 18.463 40.0843C20.5103 42.0873 27.428 38.3358 33.9141 31.7055Z" fill="url(#paint2_linear_666_142)" stroke="#E7C321" stroke-miterlimit="10"/>
<path d="M34.7968 71.7387C27.3872 66.1595 19.9841 63.491 18.2614 65.779C16.5383 68.0669 21.1489 74.4443 28.5584 80.0237C35.968 85.6029 43.3713 88.2711 45.094 85.9832C46.8167 83.6953 42.2065 77.3178 34.7968 71.7387Z" fill="url(#paint3_linear_666_142)" stroke="#E7C321" stroke-miterlimit="10"/>
<path d="M39.9462 57.8217C49.2214 57.8335 56.7433 55.5216 56.7472 52.6577C56.7509 49.7937 49.2346 47.4626 39.9594 47.4507C30.6842 47.4387 23.1621 49.7509 23.1582 52.6145C23.1547 55.4785 30.671 57.8097 39.9462 57.8217Z" fill="url(#paint4_linear_666_142)" stroke="#E7C321" stroke-miterlimit="10"/>
<defs>
<linearGradient id="paint0_linear_666_142" x1="4.54868" y1="17.7201" x2="15.3932" y2="17.7201" gradientUnits="userSpaceOnUse">
<stop stop-color="#EFCB00"/>
<stop offset="1" stop-color="#CD703C"/>
</linearGradient>
<linearGradient id="paint1_linear_666_142" x1="4.43373" y1="86.3181" x2="15.5113" y2="86.3181" gradientUnits="userSpaceOnUse">
<stop stop-color="#EFCB00"/>
<stop offset="0.8522" stop-color="#CD6F3C"/>
<stop offset="1" stop-color="#CE743D"/>
</linearGradient>
<linearGradient id="paint2_linear_666_142" x1="17.8887" y1="28.0794" x2="42.5262" y2="28.0794" gradientUnits="userSpaceOnUse">
<stop stop-color="#EFCB00"/>
<stop offset="0.4778" stop-color="#CF753C"/>
<stop offset="1" stop-color="#CD6F3C"/>
</linearGradient>
<linearGradient id="paint3_linear_666_142" x1="17.9006" y1="75.8811" x2="45.455" y2="75.8811" gradientUnits="userSpaceOnUse">
<stop stop-color="#EFCB00"/>
<stop offset="0.8522" stop-color="#CD6F3C"/>
<stop offset="1" stop-color="#CE743D"/>
</linearGradient>
<linearGradient id="paint4_linear_666_142" x1="23.1582" y1="52.6362" x2="56.7471" y2="52.6362" gradientUnits="userSpaceOnUse">
<stop stop-color="#EFCB00"/>
<stop offset="1" stop-color="#CD6F3C"/>
</linearGradient>
</defs>
</svg>
